PathFileType	4	(X/Y/Z)	./resultDataOpenSim/trcMotMarkerGrf/sub06/qtm-03-06.trc
DataRate	CameraRate	NumFrames	NumMarkers	Units	OrigDataRate	OrigDataStartFrame	OrigNumFrames
250.000000	250.000000	13	24	m	250.000000	134	532
Frame#	Time	L.Toe.Tip			R.Toe.Tip			L.Ankle.Lat			R.Ankle.Lat			L.Ankle.Med			R.Ankle.Med			L.Heel			R.Heel			L.Knee.Lat			R.Knee.Lat			L.Knee.Med			R.Knee.Med			L.Thigh.Upper			R.Thigh.Upper			L.ASIS			R.ASIS			V.Sacral			L.Acromium			R.Acromium			C7			L.Elbow			R.Elbow			L.Wrist.Lat			R.Wrist.Lat
		X1	Y1	Z1	X2	Y2	Z2	X3	Y3	Z3	X4	Y4	Z4	X5	Y5	Z5	X6	Y6	Z6	X7	Y7	Z7	X8	Y8	Z8	X9	Y9	Z9	X10	Y10	Z10	X11	Y11	Z11	X12	Y12	Z12	X13	Y13	Z13	X14	Y14	Z14	X15	Y15	Z15	X16	Y16	Z16	X17	Y17	Z17	X18	Y18	Z18	X19	Y19	Z19	X20	Y20	Z20	X21	Y21	Z21	X22	Y22	Z22	X23	Y23	Z23	X24	Y24	Z24

134	0.532	-0.13373969	0.12431705	-0.031508805	-0.79227817	0.035140821	0.10576094	-0.25871398	0.098141737	-0.053545717	-0.92361516	0.06901233	0.12805058	-0.26430475	0.11302576	0.030703177	-0.89908914	0.090924359	0.043996769	-0.3066349	0.035373732	-0.0058183343	-0.98001787	0.054195869	0.063409602	-0.38816834	0.44375724	-0.052953413	-0.7471912	0.42060986	0.17186987	-0.41071413	0.42580347	0.070565279	-0.76983919	0.4243828	0.03989168	-0.57343154	0.78470735	-0.10402252	-0.64977787	0.77005801	0.23856162	-0.51528685	0.82996055	-0.047878247	-0.53739647	0.81908665	0.20109303	-0.7121006	0.89838999	0.063007029	-0.61806794	1.3083205	-0.10642531	-0.5807278	1.2989198	0.25172298	-0.67474982	1.3385103	0.079531503	-0.73631865	1.0211979	-0.14480102	-0.60249983	0.98766152	0.35698871	-0.67477774	0.79441252	-0.21747417	-0.37137241	0.89268546	0.32159632
135	0.536	-0.12354247	0.12472179	-0.030501391	-0.79229571	0.035125774	0.10582223	-0.24835894	0.097360881	-0.052034836	-0.92342198	0.069266113	0.12804447	-0.25399605	0.11241467	0.032180196	-0.89866729	0.090989621	0.043933936	-0.29557929	0.034155184	-0.0038876172	-0.9799867	0.054784349	0.063507319	-0.38059299	0.44175136	-0.052136823	-0.74340164	0.41915895	0.17183803	-0.40340058	0.42393118	0.07138376	-0.76564677	0.42306052	0.039815799	-0.56624892	0.78153873	-0.1041508	-0.64375426	0.76755223	0.2379542	-0.50826514	0.82705002	-0.047630849	-0.53159225	0.81650998	0.20145673	-0.70548801	0.8959472	0.062288256	-0.61201401	1.3054912	-0.10684948	-0.5750305	1.2961849	0.25179039	-0.66887621	1.3360522	0.079232464	-0.73088021	1.018556	-0.14479402	-0.595357	0.98473524	0.35707458	-0.67125509	0.79160797	-0.21787516	-0.36365876	0.89161727	0.32121018
136	0.54	-0.11380172	0.12472778	-0.02954667	-0.79232319	0.035102188	0.10587099	-0.2384664	0.096344753	-0.050483487	-0.92321508	0.069565127	0.12806287	-0.2440907	0.11160476	0.033672186	-0.89822159	0.091099483	0.043907428	-0.28503736	0.03280776	-0.0018757508	-0.97987181	0.055443313	0.063557802	-0.37303574	0.43971868	-0.05137368	-0.73954321	0.41767854	0.17182134	-0.39602939	0.42205306	0.072174062	-0.7613631	0.42168728	0.039766144	-0.55903623	0.77842652	-0.10426568	-0.63748161	0.7648752	0.23714761	-0.50120337	0.82410218	-0.047368382	-0.52577344	0.81394049	0.20181857	-0.69879439	0.89347151	0.061515077	-0.60590257	1.3026336	-0.10728086	-0.56931221	1.2934491	0.25184732	-0.66300341	1.3336562	0.078866784	-0.72534673	1.0158799	-0.14475992	-0.58820037	0.98179917	0.35711314	-0.66747083	0.78882576	-0.218217	-0.35592928	0.89047323	0.32079557
137	0.544	-0.10451554	0.12433804	-0.0286157	-0.79234516	0.035071902	0.10590233	-0.22899326	0.095079736	-0.048940563	-0.92299033	0.069919618	0.12810214	-0.23458128	0.11057863	0.035170168	-0.89775672	0.091255571	0.043910093	-0.27500389	0.031321114	0.00016538904	-0.97971137	0.05617933	0.063609845	-0.36544227	0.43765849	-0.050650612	-0.73560771	0.41618516	0.17182758	-0.38859684	0.42015218	0.072936532	-0.75698793	0.42026975	0.039734269	-0.55179948	0.7753844	-0.10436896	-0.63131493	0.76227266	0.23640885	-0.49408915	0.8211297	-0.047076234	-0.51996376	0.81136509	0.2021756	-0.69203543	0.89095566	0.060593258	-0.59970703	1.2997265	-0.1076959	-0.56357351	1.2907204	0.25188704	-0.65713334	1.331315	0.078434433	-0.71970142	1.0131974	-0.14469765	-0.58102547	0.97885436	0.35710397	-0.66348663	0.78606273	-0.21852072	-0.34815807	0.88924717	0.32033769
138	0.548	-0.095667633	0.12356605	-0.027672847	-0.79234106	0.035041588	0.10591588	-0.21989978	0.093549727	-0.047455199	-0.92274109	0.070337023	0.12815665	-0.22547165	0.10932178	0.03666177	-0.8972588	0.091463116	0.04392437	-0.26549556	0.02968291	0.0021938708	-0.97951428	0.057002036	0.06367024	-0.35769847	0.43558916	-0.049933205	-0.73160229	0.41468785	0.17184987	-0.3810956	0.4182206	0.073662895	-0.75251855	0.41881462	0.039708195	-0.54454585	0.77242544	-0.10445565	-0.6254606	0.75989909	0.23592816	-0.48690945	0.81813804	-0.046728347	-0.51416201	0.80878403	0.20253432	-0.68530276	0.88840094	0.059450311	-0.59341789	1.2967907	-0.10810015	-0.55782081	1.2880105	0.25190528	-0.65123177	1.3289726	0.077958832	-0.7139574	1.0105274	-0.14465545	-0.57384205	0.97591197	0.35704784	-0.65948679	0.78329518	-0.21885143	-0.34044088	0.88795164	0.31988636
139	0.552	-0.087236729	0.12242409	-0.02669097	-0.79230709	0.035019653	0.1059183	-0.21120089	0.091753886	-0.046035602	-0.92245598	0.070820626	0.12822178	-0.21677311	0.1078235	0.038134058	-0.89674951	0.091728116	0.043939936	-0.25652505	0.027876678	0.0041752723	-0.97930147	0.05793381	0.063737779	-0.34977063	0.43352528	-0.04920924	-0.72753139	0.41318162	0.17187793	-0.37351451	0.41626755	0.07434445	-0.74795711	0.41732949	0.039679035	-0.53727299	0.76956186	-0.10452451	-0.61990327	0.75775684	0.23569712	-0.47965268	0.8151282	-0.046300182	-0.50834386	0.80620752	0.20290086	-0.67875408	0.88581982	0.058203756	-0.58700803	1.2938614	-0.10850979	-0.55205923	1.2853331	0.25189208	-0.64526096	1.3265739	0.077467781	-0.70813866	1.0078798	-0.14467828	-0.56666989	0.97298807	0.35694013	-0.65558821	0.78051733	-0.21925179	-0.3328748	0.88660386	0.31949334
140	0.556	-0.079203951	0.12092227	-0.025653273	-0.79227696	0.035010271	0.10592826	-0.20294734	0.089723026	-0.044641693	-0.92212133	0.071370691	0.1282971	-0.20849577	0.10607899	0.039574001	-0.89629154	0.092053963	0.043961771	-0.24809275	0.025890539	0.0060742948	-0.97913509	0.059004835	0.063848395	-0.34178811	0.4314579	-0.048514361	-0.72339545	0.41166547	0.17190634	-0.36584737	0.41431677	0.07497613	-0.74331905	0.41582536	0.039641146	-0.52996665	0.76680701	-0.10458023	-0.61451542	0.7557652	0.23559759	-0.47232424	0.81211446	-0.045805324	-0.50247699	0.80364267	0.2032733	-0.67241281	0.8832073	0.057150548	-0.58046099	1.2909589	-0.10893421	-0.54628687	1.2826989	0.25183282	-0.63921473	1.3241086	0.076974666	-0.70225571	1.005261	-0.14476253	-0.55952762	0.97009584	0.35677146	-0.651771	0.7777443	-0.21972145	-0.3254533	0.88521038	0.31915555
141	0.56	-0.071558005	0.11907209	-0.024551607	-0.79230173	0.035003955	0.10596235	-0.19515917	0.087502622	-0.043234548	-0.92172094	0.071991442	0.12839354	-0.2006421	0.10408791	0.04096704	-0.89589847	0.0924447	0.044001681	-0.2401898	0.023728453	0.0078514192	-0.97903962	0.060218305	0.064036863	-0.33389357	0.4293731	-0.047892658	-0.71919792	0.41014737	0.17192844	-0.35809439	0.4123971	0.075554741	-0.73862908	0.41431259	0.039593288	-0.52260738	0.7641696	-0.1046282	-0.60919512	0.75385578	0.23553878	-0.46495507	0.80913435	-0.045310023	-0.4965429	0.80109896	0.2036436	-0.6660099	0.88052733	0.056475415	-0.5738403	1.2880923	-0.10937832	-0.54050285	1.2801118	0.251718	-0.63310616	1.3215922	0.076483075	-0.69630315	1.0026779	-0.14487445	-0.5524262	0.96724437	0.356534	-0.64789042	0.7749966	-0.22022198	-0.31812346	0.88376961	0.31884311
142	0.564	-0.064293033	0.11688742	-0.023384852	-0.79238074	0.034981922	0.10600773	-0.18780404	0.085118703	-0.041820836	-0.92122938	0.07269704	0.1285338	-0.19320927	0.10185428	0.042301479	-0.89546256	0.092911216	0.044060257	-0.23280063	0.021406352	0.0094684521	-0.97893283	0.061524174	0.064280249	-0.32609207	0.42728039	-0.047347968	-0.71493308	0.40862624	0.17193718	-0.35025585	0.41053609	0.076076592	-0.7339061	0.41279691	0.039538345	-0.51518158	0.76164754	-0.10467368	-0.60390543	0.75200441	0.2354944	-0.45757781	0.80623057	-0.044882402	-0.49053948	0.79859265	0.20400129	-0.65923084	0.87778215	0.056098821	-0.56724692	1.2852695	-0.10984474	-0.53472384	1.2775692	0.25154421	-0.62694244	1.3190321	0.075997308	-0.69026689	1.0001361	-0.1449911	-0.54536502	0.96444161	0.35622225	-0.64374939	0.77229269	-0.22069063	-0.31084585	0.88227684	0.31853362
143	0.568	-0.057399436	0.11438144	-0.022155077	-0.79244004	0.034938979	0.10602939	-0.18083617	0.082569282	-0.040440171	-0.9206188	0.073503932	0.12873317	-0.18619515	0.099386725	0.043574068	-0.89485453	0.093475031	0.044120906	-0.22590286	0.018936358	0.010899793	-0.97873556	0.062868375	0.064553686	-0.31830246	0.42521083	-0.046846111	-0.71057501	0.40709104	0.17193778	-0.34233113	0.40875667	0.076540534	-0.72914406	0.41127855	0.03947953	-0.50768916	0.75922972	-0.104722	-0.59865295	0.75021889	0.23547398	-0.45019479	0.80342678	-0.044535163	-0.48446617	0.79613501	0.20433824	-0.65205875	0.87506552	0.055863716	-0.56070396	1.2824938	-0.11033174	-0.52898397	1.2750664	0.25130922	-0.62072737	1.3164367	0.075513593	-0.68413044	0.99763588	-0.14510946	-0.53832983	0.96169253	0.35583187	-0.63926977	0.7696423	-0.22109186	-0.30359967	0.88072809	0.31821688
144	0.572	-0.05086166	0.11156359	-0.02086618	-0.79241796	0.034888911	0.10601334	-0.17423012	0.079843761	-0.039125343	-0.919884	0.074423633	0.12897785	-0.1796044	0.096693261	0.044784396	-0.89405899	0.094162126	0.044163344	-0.21947308	0.016321632	0.012146772	-0.97846861	0.064263086	0.064879599	-0.3104676	0.42319137	-0.046356084	-0.70609175	0.40554254	0.17194934	-0.33432388	0.40707491	0.076948764	-0.72428977	0.40975089	0.03942102	-0.50013691	0.75690086	-0.10477172	-0.59346873	0.74852217	0.23549907	-0.44277824	0.80071914	-0.044227378	-0.47832439	0.7937267	0.20465296	-0.64470847	0.87249431	0.055700803	-0.55414954	1.2797623	-0.11083538	-0.5232887	1.2726065	0.25101533	-0.61447354	1.3138384	0.075006997	-0.67788149	0.99517859	-0.14522975	-0.5313078	0.95899648	0.35536501	-0.63456466	0.76704429	-0.22145121	-0.29638758	0.87912508	0.31789536
145	0.576	-0.044667546	0.10844042	-0.019526502	-0.79233103	0.034843009	0.10597969	-0.16797671	0.076941726	-0.037879022	-0.91905612	0.075465581	0.12922909	-0.17344515	0.093779735	0.045925971	-0.89314981	0.094976025	0.044187027	-0.21349827	0.013567178	0.013244093	-0.97815694	0.065776125	0.065251408	-0.30259128	0.42122427	-0.045882418	-0.70147243	0.40400039	0.17198827	-0.32624219	0.40550168	0.077300554	-0.71925473	0.40820213	0.039372324	-0.49252337	0.75464609	-0.10480991	-0.58841137	0.74694895	0.23560215	-0.43529838	0.79808226	-0.043901764	-0.47212553	0.79136025	0.20494637	-0.63735775	0.87012153	0.055602087	-0.54751908	1.2770715	-0.11135356	-0.5175704	1.2702039	0.2506714	-0.6082008	1.3112747	0.074449897	-0.67151517	0.99276963	-0.14534734	-0.52431279	0.95635542	0.35483179	-0.62978479	0.76449592	-0.22181444	-0.28923173	0.87747484	0.31758194
146	0.58	-0.038814327	0.10501948	-0.018150003	-0.79222633	0.034800353	0.10595189	-0.16206754	0.073875924	-0.036680987	-0.91818983	0.076620999	0.12945208	-0.16769139	0.090668918	0.047004372	-0.89219748	0.095877748	0.044224289	-0.20797565	0.01068733	0.014248531	-0.97776467	0.067462149	0.065610793	-0.29471042	0.41929373	-0.045453168	-0.69673617	0.40248473	0.17205659	-0.31809516	0.40404588	0.077591484	-0.71400433	0.40662691	0.039345527	-0.48483758	0.75245571	-0.10482079	-0.5835727	0.74554829	0.23582735	-0.42774584	0.79549149	-0.043523003	-0.465887	0.78902328	0.20521809	-0.63005409	0.86793272	0.055561463	-0.54078484	1.2744182	-0.111888	-0.51173819	1.2678723	0.2502858	-0.60193055	1.3087522	0.073844652	-0.6650328	0.99041211	-0.14545935	-0.51738314	0.95378355	0.35424331	-0.62495798	0.76199937	-0.22219671	-0.28215412	0.87578296	0.31729064
